# MagicaVoxel @ Ephtracy

# group
o 

# material
mtllib SnowSectorWater.mtl
usemtl palette

# normals
vn -1 0 0
vn 1 0 0
vn 0 0 1
vn 0 0 -1
vn 0 -1 0
vn 0 1 0

# texcoords
vt 0.439453 0.5
vt 0.537109 0.5
vt 0.775391 0.5
vt 0.958984 0.5

# verts
v -3.2 0 3.2
v -3.2 0 -3.2
v -3.2 0.5 -1.7
v -3.2 0.5 -3.2
v -3.2 0.6 -0.6
v -3.2 0.6 -1.7
v -3.2 0.7 -0.3
v -3.2 0.7 -0.6
v -3.2 0.8 3.2
v -3.2 0.8 -0.1
v -3.2 0.8 -0.3
v -3.2 1 3.2
v -3.2 1 -0.1
v -3.2 1 -3.2
v 3.2 0 3.2
v 3.2 0 -3.2
v 3.2 0.8 3.2
v 3.2 0.8 -3.2
v 3.2 1 3.2
v 3.2 1 -3.2
v -3.2 0 3.2
v -3.2 0.8 3.2
v -3.2 1 3.2
v 3.2 0 3.2
v 3.2 0.8 3.2
v 3.2 1 3.2
v -3.2 0 -3.2
v -3.2 0.5 -3.2
v -3.2 1 -3.2
v -1.6 0.5 -3.2
v -1.6 0.6 -3.2
v -0.7 0.6 -3.2
v -0.7 0.7 -3.2
v -0.3 0.7 -3.2
v -0.3 0.8 -3.2
v -0.0999999 0.8 -3.2
v -0.0999999 1 -3.2
v 3.2 0 -3.2
v 3.2 0.8 -3.2
v 3.2 1 -3.2
v -3.2 0 3.2
v 3.2 0 3.2
v -3.2 0 -3.2
v 3.2 0 -3.2
v -3.2 1 3.2
v 3.2 1 3.2
v -3.2 1 -0.1
v -2.6 1 -0.1
v -2.6 1 -0.2
v -2.5 1 -0.2
v -2.5 1 -0.3
v -2.2 1 -0.3
v -2.2 1 -0.4
v -2.1 1 -0.4
v -2.1 1 -0.5
v -2 1 -0.5
v -2 1 -0.6
v -1.8 1 -0.6
v -1.8 1 -0.7
v -1.7 1 -0.7
v -1.7 1 -0.8
v -1.6 1 -0.8
v -1.6 1 -0.9
v -1.5 1 -0.9
v -1.5 1 -1
v -1.4 1 -1
v -1.4 1 -1.1
v -1.3 1 -1.1
v -1.3 1 -1.2
v -1.2 1 -1.2
v -1.2 1 -1.3
v -1.1 1 -1.3
v -1.1 1 -1.5
v -1 1 -1.5
v -1 1 -1.6
v -0.9 1 -1.6
v -0.9 1 -1.8
v -0.8 1 -1.8
v -0.8 1 -1.9
v -0.7 1 -1.9
v -0.7 1 -2
v -0.6 1 -2
v -0.6 1 -2.2
v -0.5 1 -2.2
v -0.5 1 -2.4
v -0.4 1 -2.4
v -0.4 1 -2.6
v -0.3 1 -2.6
v -0.3 1 -2.8
v -0.2 1 -2.8
v -0.2 1 -3
v -0.0999999 1 -3
v -3.2 1 -3.2
v -0.0999999 1 -3.2
v 3.2 1 -3.2

# faces
f 3/2/1 2/2/1 1/2/1
f 4/2/1 2/2/1 3/2/1
f 5/2/1 3/2/1 1/2/1
f 6/3/1 4/3/1 3/3/1
f 6/2/1 3/2/1 5/2/1
f 7/2/1 5/2/1 1/2/1
f 8/3/1 6/3/1 5/3/1
f 8/2/1 5/2/1 7/2/1
f 9/2/1 7/2/1 1/2/1
f 10/2/1 7/2/1 9/2/1
f 11/3/1 8/3/1 7/3/1
f 11/2/1 7/2/1 10/2/1
f 12/4/1 10/4/1 9/4/1
f 13/3/1 11/3/1 10/3/1
f 13/4/1 10/4/1 12/4/1
f 14/3/1 4/3/1 6/3/1
f 14/3/1 11/3/1 13/3/1
f 14/3/1 6/3/1 8/3/1
f 14/3/1 8/3/1 11/3/1
f 15/2/2 16/2/2 17/2/2
f 17/2/2 16/2/2 18/2/2
f 17/4/2 18/4/2 19/4/2
f 19/4/2 18/4/2 20/4/2
f 24/2/3 22/2/3 21/2/3
f 25/4/3 23/4/3 22/4/3
f 25/2/3 22/2/3 24/2/3
f 26/4/3 23/4/3 25/4/3
f 27/2/4 28/2/4 30/2/4
f 28/3/4 29/3/4 30/3/4
f 30/3/4 29/3/4 31/3/4
f 30/2/4 31/2/4 32/2/4
f 31/3/4 29/3/4 32/3/4
f 32/3/4 29/3/4 33/3/4
f 32/2/4 33/2/4 34/2/4
f 33/3/4 29/3/4 34/3/4
f 34/3/4 29/3/4 35/3/4
f 34/2/4 35/2/4 36/2/4
f 35/3/4 29/3/4 36/3/4
f 36/3/4 29/3/4 37/3/4
f 27/2/4 30/2/4 38/2/4
f 30/2/4 32/2/4 38/2/4
f 32/2/4 34/2/4 38/2/4
f 34/2/4 36/2/4 38/2/4
f 36/4/4 37/4/4 39/4/4
f 38/2/4 36/2/4 39/2/4
f 39/4/4 37/4/4 40/4/4
f 43/2/5 42/2/5 41/2/5
f 44/2/5 42/2/5 43/2/5
f 45/4/6 46/4/6 47/4/6
f 47/4/6 46/4/6 48/4/6
f 47/3/6 48/3/6 49/3/6
f 48/4/6 46/4/6 49/4/6
f 49/4/6 46/4/6 50/4/6
f 49/3/6 50/3/6 51/3/6
f 50/4/6 46/4/6 51/4/6
f 51/4/6 46/4/6 52/4/6
f 51/3/6 52/3/6 53/3/6
f 52/4/6 46/4/6 53/4/6
f 53/4/6 46/4/6 54/4/6
f 53/3/6 54/3/6 55/3/6
f 54/4/6 46/4/6 55/4/6
f 55/4/6 46/4/6 56/4/6
f 55/3/6 56/3/6 57/3/6
f 56/4/6 46/4/6 57/4/6
f 57/4/6 46/4/6 58/4/6
f 57/3/6 58/3/6 59/3/6
f 58/4/6 46/4/6 59/4/6
f 59/4/6 46/4/6 60/4/6
f 59/3/6 60/3/6 61/3/6
f 60/4/6 46/4/6 61/4/6
f 61/4/6 46/4/6 62/4/6
f 61/3/6 62/3/6 63/3/6
f 62/4/6 46/4/6 63/4/6
f 63/4/6 46/4/6 64/4/6
f 63/3/6 64/3/6 65/3/6
f 64/4/6 46/4/6 65/4/6
f 65/4/6 46/4/6 66/4/6
f 65/3/6 66/3/6 67/3/6
f 66/4/6 46/4/6 67/4/6
f 67/4/6 46/4/6 68/4/6
f 67/3/6 68/3/6 69/3/6
f 68/4/6 46/4/6 69/4/6
f 69/4/6 46/4/6 70/4/6
f 69/3/6 70/3/6 71/3/6
f 70/4/6 46/4/6 71/4/6
f 71/4/6 46/4/6 72/4/6
f 71/3/6 72/3/6 73/3/6
f 72/4/6 46/4/6 73/4/6
f 73/4/6 46/4/6 74/4/6
f 73/3/6 74/3/6 75/3/6
f 74/4/6 46/4/6 75/4/6
f 75/4/6 46/4/6 76/4/6
f 75/3/6 76/3/6 77/3/6
f 76/4/6 46/4/6 77/4/6
f 77/4/6 46/4/6 78/4/6
f 77/3/6 78/3/6 79/3/6
f 78/4/6 46/4/6 79/4/6
f 79/4/6 46/4/6 80/4/6
f 79/3/6 80/3/6 81/3/6
f 80/4/6 46/4/6 81/4/6
f 81/4/6 46/4/6 82/4/6
f 81/3/6 82/3/6 83/3/6
f 82/4/6 46/4/6 83/4/6
f 83/4/6 46/4/6 84/4/6
f 83/3/6 84/3/6 85/3/6
f 84/4/6 46/4/6 85/4/6
f 85/4/6 46/4/6 86/4/6
f 85/3/6 86/3/6 87/3/6
f 86/4/6 46/4/6 87/4/6
f 87/4/6 46/4/6 88/4/6
f 87/3/6 88/3/6 89/3/6
f 88/4/6 46/4/6 89/4/6
f 89/4/6 46/4/6 90/4/6
f 89/3/6 90/3/6 91/3/6
f 90/4/6 46/4/6 91/4/6
f 91/4/6 46/4/6 92/4/6
f 47/3/6 49/3/6 93/3/6
f 49/3/6 51/3/6 93/3/6
f 91/3/6 92/3/6 93/3/6
f 89/3/6 91/3/6 93/3/6
f 87/3/6 89/3/6 93/3/6
f 85/3/6 87/3/6 93/3/6
f 83/3/6 85/3/6 93/3/6
f 81/3/6 83/3/6 93/3/6
f 79/3/6 81/3/6 93/3/6
f 77/3/6 79/3/6 93/3/6
f 75/3/6 77/3/6 93/3/6
f 73/3/6 75/3/6 93/3/6
f 71/3/6 73/3/6 93/3/6
f 69/3/6 71/3/6 93/3/6
f 67/3/6 69/3/6 93/3/6
f 65/3/6 67/3/6 93/3/6
f 63/3/6 65/3/6 93/3/6
f 61/3/6 63/3/6 93/3/6
f 59/3/6 61/3/6 93/3/6
f 57/3/6 59/3/6 93/3/6
f 55/3/6 57/3/6 93/3/6
f 53/3/6 55/3/6 93/3/6
f 51/3/6 53/3/6 93/3/6
f 92/4/6 46/4/6 94/4/6
f 93/3/6 92/3/6 94/3/6
f 94/4/6 46/4/6 95/4/6
