# MagicaVoxel @ Ephtracy

# group
o 

# material
mtllib Mushroom3.mtl
usemtl palette

# normals
vn -1 0 0
vn 1 0 0
vn 0 0 1
vn 0 0 -1
vn 0 -1 0
vn 0 1 0

# texcoords
vt 0.517578 0.5
vt 0.830078 0.5
vt 0.962891 0.5

# verts
v -0.5 1.3 0.0999999
v -0.5 1.3 -1.19209e-07
v -0.5 1.3 -0.1
v -0.5 1.4 0.0999999
v -0.5 1.4 -1.19209e-07
v -0.5 1.4 -0.1
v -0.4 1 0.0999999
v -0.4 1 -0.1
v -0.4 1.1 0.0999999
v -0.4 1.1 -0.1
v -0.4 1.3 0.2
v -0.4 1.3 0.0999999
v -0.4 1.3 -0.1
v -0.4 1.3 -0.2
v -0.4 1.4 0.2
v -0.4 1.4 0.0999999
v -0.4 1.4 -1.19209e-07
v -0.4 1.4 -0.1
v -0.4 1.4 -0.2
v -0.4 1.5 0.0999999
v -0.4 1.5 -0.1
v -0.3 1.3 0.3
v -0.3 1.3 0.2
v -0.3 1.3 -0.2
v -0.3 1.3 -0.3
v -0.3 1.4 0.3
v -0.3 1.4 0.2
v -0.3 1.4 0.0999999
v -0.3 1.4 -0.1
v -0.3 1.4 -0.2
v -0.3 1.4 -0.3
v -0.3 1.5 0.2
v -0.3 1.5 0.0999999
v -0.3 1.5 -0.1
v -0.3 1.5 -0.2
v -0.2 1 0.2
v -0.2 1 0.0999999
v -0.2 1 -0.1
v -0.2 1 -0.2
v -0.2 1.1 0.2
v -0.2 1.1 0.0999999
v -0.2 1.1 -0.1
v -0.2 1.1 -0.2
v -0.2 1.2 0.0999999
v -0.2 1.2 -0.1
v -0.2 1.3 0.4
v -0.2 1.3 0.3
v -0.2 1.3 -0.3
v -0.2 1.3 -0.4
v -0.2 1.4 0.4
v -0.2 1.4 0.3
v -0.2 1.4 0.2
v -0.2 1.4 -0.2
v -0.2 1.4 -0.3
v -0.2 1.4 -0.4
v -0.2 1.5 0.3
v -0.2 1.5 0.2
v -0.2 1.5 0.0999999
v -0.2 1.5 -0.1
v -0.2 1.5 -0.2
v -0.2 1.5 -0.3
v -0.2 1.6 0.0999999
v -0.2 1.6 -0.1
v -0.0999999 1 0.4
v -0.0999999 1 0.2
v -0.0999999 1 -0.2
v -0.0999999 1 -0.4
v -0.0999999 1.1 0.4
v -0.0999999 1.1 0.2
v -0.0999999 1.1 0.0999999
v -0.0999999 1.1 -0.1
v -0.0999999 1.1 -0.2
v -0.0999999 1.1 -0.4
v -0.0999999 1.2 0.2
v -0.0999999 1.2 0.0999999
v -0.0999999 1.2 -0.1
v -0.0999999 1.2 -0.2
v -0.0999999 1.3 0.5
v -0.0999999 1.3 0.4
v -0.0999999 1.3 0.0999999
v -0.0999999 1.3 -0.1
v -0.0999999 1.3 -0.4
v -0.0999999 1.3 -0.5
v -0.0999999 1.4 0.5
v -0.0999999 1.4 0.4
v -0.0999999 1.4 0.3
v -0.0999999 1.4 -0.3
v -0.0999999 1.4 -0.4
v -0.0999999 1.4 -0.5
v -0.0999999 1.5 0.4
v -0.0999999 1.5 0.3
v -0.0999999 1.5 0.2
v -0.0999999 1.5 0.0999999
v -0.0999999 1.5 -0.1
v -0.0999999 1.5 -0.2
v -0.0999999 1.5 -0.3
v -0.0999999 1.5 -0.4
v -0.0999999 1.6 0.2
v -0.0999999 1.6 0.0999999
v -0.0999999 1.6 -1.19209e-07
v -0.0999999 1.6 -0.1
v -0.0999999 1.6 -0.2
v -0.0999999 1.7 0.0999999
v -0.0999999 1.7 -1.19209e-07
v -0.0999999 1.7 -0.1
v 0.1 1 0.4
v 0.1 1 0.2
v 0.1 1 -0.2
v 0.1 1 -0.4
v 0.1 1.1 0.4
v 0.1 1.1 0.2
v 0.1 1.1 0.0999999
v 0.1 1.1 -0.1
v 0.1 1.1 -0.2
v 0.1 1.1 -0.4
v 0.1 1.2 0.2
v 0.1 1.2 0.0999999
v 0.1 1.2 -0.1
v 0.1 1.2 -0.2
v 0.1 1.3 0.5
v 0.1 1.3 0.4
v 0.1 1.3 0.0999999
v 0.1 1.3 -0.1
v 0.1 1.3 -0.4
v 0.1 1.3 -0.5
v 0.1 1.4 0.5
v 0.1 1.4 0.4
v 0.1 1.4 0.3
v 0.1 1.4 -0.3
v 0.1 1.4 -0.4
v 0.1 1.4 -0.5
v 0.1 1.5 0.4
v 0.1 1.5 0.3
v 0.1 1.5 0.2
v 0.1 1.5 0.0999999
v 0.1 1.5 -0.1
v 0.1 1.5 -0.2
v 0.1 1.5 -0.3
v 0.1 1.5 -0.4
v 0.1 1.6 0.2
v 0.1 1.6 0.0999999
v 0.1 1.6 -0.1
v 0.1 1.6 -0.2
v 0.1 1.7 0.0999999
v 0.1 1.7 -0.1
v 0.2 1 0.2
v 0.2 1 0.0999999
v 0.2 1 -0.1
v 0.2 1 -0.2
v 0.2 1.1 0.2
v 0.2 1.1 0.0999999
v 0.2 1.1 -0.1
v 0.2 1.1 -0.2
v 0.2 1.2 0.0999999
v 0.2 1.2 -0.1
v 0.2 1.3 0.4
v 0.2 1.3 0.3
v 0.2 1.3 -0.3
v 0.2 1.3 -0.4
v 0.2 1.4 0.4
v 0.2 1.4 0.3
v 0.2 1.4 0.2
v 0.2 1.4 -0.2
v 0.2 1.4 -0.3
v 0.2 1.4 -0.4
v 0.2 1.5 0.3
v 0.2 1.5 0.2
v 0.2 1.5 0.0999999
v 0.2 1.5 -0.1
v 0.2 1.5 -0.2
v 0.2 1.5 -0.3
v 0.2 1.6 0.0999999
v 0.2 1.6 -0.1
v 0.3 1.3 0.3
v 0.3 1.3 0.2
v 0.3 1.3 -0.2
v 0.3 1.3 -0.3
v 0.3 1.4 0.3
v 0.3 1.4 0.2
v 0.3 1.4 0.0999999
v 0.3 1.4 -0.1
v 0.3 1.4 -0.2
v 0.3 1.4 -0.3
v 0.3 1.5 0.2
v 0.3 1.5 0.0999999
v 0.3 1.5 -0.1
v 0.3 1.5 -0.2
v 0.4 1 0.0999999
v 0.4 1 -0.1
v 0.4 1.1 0.0999999
v 0.4 1.1 -0.1
v 0.4 1.3 0.2
v 0.4 1.3 0.0999999
v 0.4 1.3 -0.1
v 0.4 1.3 -0.2
v 0.4 1.4 0.2
v 0.4 1.4 0.0999999
v 0.4 1.4 -0.1
v 0.4 1.4 -0.2
v 0.4 1.5 0.0999999
v 0.4 1.5 -0.1
v 0.5 1.3 0.0999999
v 0.5 1.3 -0.1
v 0.5 1.4 0.0999999
v 0.5 1.4 -0.1
v -0.0999999 1.3 0.5
v -0.0999999 1.4 0.5
v 0.1 1.3 0.5
v 0.1 1.4 0.5
v -0.2 1.3 0.4
v -0.2 1.4 0.4
v -0.0999999 1 0.4
v -0.0999999 1.1 0.4
v -0.0999999 1.3 0.4
v -0.0999999 1.4 0.4
v -0.0999999 1.5 0.4
v 1.19209e-07 1.4 0.4
v 1.19209e-07 1.5 0.4
v 0.1 1 0.4
v 0.1 1.1 0.4
v 0.1 1.3 0.4
v 0.1 1.4 0.4
v 0.1 1.5 0.4
v 0.2 1.3 0.4
v 0.2 1.4 0.4
v -0.3 1.3 0.3
v -0.3 1.4 0.3
v -0.2 1.3 0.3
v -0.2 1.4 0.3
v -0.2 1.5 0.3
v -0.0999999 1.4 0.3
v -0.0999999 1.5 0.3
v 0.1 1.4 0.3
v 0.1 1.5 0.3
v 0.2 1.3 0.3
v 0.2 1.4 0.3
v 0.2 1.5 0.3
v 0.3 1.3 0.3
v 0.3 1.4 0.3
v -0.4 1.3 0.2
v -0.4 1.4 0.2
v -0.3 1.3 0.2
v -0.3 1.4 0.2
v -0.3 1.5 0.2
v -0.2 1 0.2
v -0.2 1.1 0.2
v -0.2 1.4 0.2
v -0.2 1.5 0.2
v -0.0999999 1 0.2
v -0.0999999 1.1 0.2
v -0.0999999 1.2 0.2
v -0.0999999 1.5 0.2
v -0.0999999 1.6 0.2
v 0.1 1 0.2
v 0.1 1.1 0.2
v 0.1 1.2 0.2
v 0.1 1.5 0.2
v 0.1 1.6 0.2
v 0.2 1 0.2
v 0.2 1.1 0.2
v 0.2 1.4 0.2
v 0.2 1.5 0.2
v 0.3 1.3 0.2
v 0.3 1.4 0.2
v 0.3 1.5 0.2
v 0.4 1.3 0.2
v 0.4 1.4 0.2
v -0.5 1.3 0.0999999
v -0.5 1.4 0.0999999
v -0.4 1 0.0999999
v -0.4 1.1 0.0999999
v -0.4 1.3 0.0999999
v -0.4 1.4 0.0999999
v -0.4 1.5 0.0999999
v -0.3 1.4 0.0999999
v -0.3 1.5 0.0999999
v -0.2 1 0.0999999
v -0.2 1.1 0.0999999
v -0.2 1.2 0.0999999
v -0.2 1.5 0.0999999
v -0.2 1.6 0.0999999
v -0.0999999 1.1 0.0999999
v -0.0999999 1.2 0.0999999
v -0.0999999 1.3 0.0999999
v -0.0999999 1.5 0.0999999
v -0.0999999 1.6 0.0999999
v -0.0999999 1.7 0.0999999
v 1.19209e-07 1.6 0.0999999
v 1.19209e-07 1.7 0.0999999
v 0.1 1.1 0.0999999
v 0.1 1.2 0.0999999
v 0.1 1.3 0.0999999
v 0.1 1.5 0.0999999
v 0.1 1.6 0.0999999
v 0.1 1.7 0.0999999
v 0.2 1 0.0999999
v 0.2 1.1 0.0999999
v 0.2 1.2 0.0999999
v 0.2 1.5 0.0999999
v 0.2 1.6 0.0999999
v 0.3 1.4 0.0999999
v 0.3 1.5 0.0999999
v 0.4 1 0.0999999
v 0.4 1.1 0.0999999
v 0.4 1.3 0.0999999
v 0.4 1.4 0.0999999
v 0.4 1.5 0.0999999
v 0.5 1.3 0.0999999
v 0.5 1.4 0.0999999
v -0.5 1.3 -0.1
v -0.5 1.4 -0.1
v -0.4 1 -0.1
v -0.4 1.1 -0.1
v -0.4 1.3 -0.1
v -0.4 1.4 -0.1
v -0.4 1.5 -0.1
v -0.3 1.4 -0.1
v -0.3 1.5 -0.1
v -0.2 1 -0.1
v -0.2 1.1 -0.1
v -0.2 1.2 -0.1
v -0.2 1.5 -0.1
v -0.2 1.6 -0.1
v -0.0999999 1.1 -0.1
v -0.0999999 1.2 -0.1
v -0.0999999 1.3 -0.1
v -0.0999999 1.5 -0.1
v -0.0999999 1.6 -0.1
v -0.0999999 1.7 -0.1
v 1.19209e-07 1.6 -0.1
v 0.1 1.1 -0.1
v 0.1 1.2 -0.1
v 0.1 1.3 -0.1
v 0.1 1.5 -0.1
v 0.1 1.6 -0.1
v 0.1 1.7 -0.1
v 0.2 1 -0.1
v 0.2 1.1 -0.1
v 0.2 1.2 -0.1
v 0.2 1.5 -0.1
v 0.2 1.6 -0.1
v 0.3 1.4 -0.1
v 0.3 1.5 -0.1
v 0.4 1 -0.1
v 0.4 1.1 -0.1
v 0.4 1.3 -0.1
v 0.4 1.4 -0.1
v 0.4 1.5 -0.1
v 0.5 1.3 -0.1
v 0.5 1.4 -0.1
v -0.4 1.3 -0.2
v -0.4 1.4 -0.2
v -0.3 1.3 -0.2
v -0.3 1.4 -0.2
v -0.3 1.5 -0.2
v -0.2 1 -0.2
v -0.2 1.1 -0.2
v -0.2 1.4 -0.2
v -0.2 1.5 -0.2
v -0.0999999 1 -0.2
v -0.0999999 1.1 -0.2
v -0.0999999 1.2 -0.2
v -0.0999999 1.5 -0.2
v -0.0999999 1.6 -0.2
v 1.19209e-07 1.5 -0.2
v 1.19209e-07 1.6 -0.2
v 0.1 1 -0.2
v 0.1 1.1 -0.2
v 0.1 1.2 -0.2
v 0.1 1.5 -0.2
v 0.1 1.6 -0.2
v 0.2 1 -0.2
v 0.2 1.1 -0.2
v 0.2 1.4 -0.2
v 0.2 1.5 -0.2
v 0.3 1.3 -0.2
v 0.3 1.4 -0.2
v 0.3 1.5 -0.2
v 0.4 1.3 -0.2
v 0.4 1.4 -0.2
v -0.3 1.3 -0.3
v -0.3 1.4 -0.3
v -0.2 1.3 -0.3
v -0.2 1.4 -0.3
v -0.2 1.5 -0.3
v -0.0999999 1.4 -0.3
v -0.0999999 1.5 -0.3
v 0.1 1.4 -0.3
v 0.1 1.5 -0.3
v 0.2 1.3 -0.3
v 0.2 1.4 -0.3
v 0.2 1.5 -0.3
v 0.3 1.3 -0.3
v 0.3 1.4 -0.3
v -0.2 1.3 -0.4
v -0.2 1.4 -0.4
v -0.0999999 1 -0.4
v -0.0999999 1.1 -0.4
v -0.0999999 1.3 -0.4
v -0.0999999 1.4 -0.4
v -0.0999999 1.5 -0.4
v 1.19209e-07 1.4 -0.4
v 0.1 1 -0.4
v 0.1 1.1 -0.4
v 0.1 1.3 -0.4
v 0.1 1.4 -0.4
v 0.1 1.5 -0.4
v 0.2 1.3 -0.4
v 0.2 1.4 -0.4
v -0.0999999 1.3 -0.5
v -0.0999999 1.4 -0.5
v 1.19209e-07 1.3 -0.5
v 1.19209e-07 1.4 -0.5
v 0.1 1.3 -0.5
v 0.1 1.4 -0.5
v -0.0999999 1 0.4
v 0.1 1 0.4
v -0.2 1 0.2
v -0.0999999 1 0.2
v 0.1 1 0.2
v 0.2 1 0.2
v -0.4 1 0.0999999
v -0.2 1 0.0999999
v 0.2 1 0.0999999
v 0.4 1 0.0999999
v -0.4 1 -0.1
v -0.2 1 -0.1
v 0.2 1 -0.1
v 0.4 1 -0.1
v -0.2 1 -0.2
v -0.0999999 1 -0.2
v 0.1 1 -0.2
v 0.2 1 -0.2
v -0.0999999 1 -0.4
v 0.1 1 -0.4
v -0.0999999 1.3 0.5
v 0.1 1.3 0.5
v -0.2 1.3 0.4
v -0.0999999 1.3 0.4
v 0.1 1.3 0.4
v 0.2 1.3 0.4
v -0.3 1.3 0.3
v -0.2 1.3 0.3
v 0.2 1.3 0.3
v 0.3 1.3 0.3
v -0.4 1.3 0.2
v -0.3 1.3 0.2
v 0.3 1.3 0.2
v 0.4 1.3 0.2
v -0.5 1.3 0.0999999
v -0.4 1.3 0.0999999
v -0.0999999 1.3 0.0999999
v 0.1 1.3 0.0999999
v 0.4 1.3 0.0999999
v 0.5 1.3 0.0999999
v -0.5 1.3 -1.19209e-07
v -0.4 1.3 -1.19209e-07
v -0.5 1.3 -0.1
v -0.4 1.3 -0.1
v -0.0999999 1.3 -0.1
v 0.1 1.3 -0.1
v 0.3 1.3 -0.1
v 0.4 1.3 -0.1
v 0.5 1.3 -0.1
v -0.4 1.3 -0.2
v -0.3 1.3 -0.2
v 0.3 1.3 -0.2
v 0.4 1.3 -0.2
v -0.3 1.3 -0.3
v -0.2 1.3 -0.3
v 0.2 1.3 -0.3
v 0.3 1.3 -0.3
v -0.2 1.3 -0.4
v -0.0999999 1.3 -0.4
v 1.19209e-07 1.3 -0.4
v 0.1 1.3 -0.4
v 0.2 1.3 -0.4
v -0.0999999 1.3 -0.5
v 1.19209e-07 1.3 -0.5
v 0.1 1.3 -0.5
v -0.0999999 1.1 0.4
v 0.1 1.1 0.4
v -0.2 1.1 0.2
v -0.0999999 1.1 0.2
v 0.1 1.1 0.2
v 0.2 1.1 0.2
v -0.4 1.1 0.0999999
v -0.2 1.1 0.0999999
v -0.0999999 1.1 0.0999999
v 0.1 1.1 0.0999999
v 0.2 1.1 0.0999999
v 0.4 1.1 0.0999999
v -0.4 1.1 -0.1
v -0.2 1.1 -0.1
v -0.0999999 1.1 -0.1
v 0.1 1.1 -0.1
v 0.2 1.1 -0.1
v 0.4 1.1 -0.1
v -0.2 1.1 -0.2
v -0.0999999 1.1 -0.2
v 0.1 1.1 -0.2
v 0.2 1.1 -0.2
v -0.0999999 1.1 -0.4
v 0.1 1.1 -0.4
v -0.0999999 1.2 0.2
v 0.1 1.2 0.2
v -0.2 1.2 0.0999999
v -0.0999999 1.2 0.0999999
v 0.1 1.2 0.0999999
v 0.2 1.2 0.0999999
v -0.2 1.2 -0.1
v -0.0999999 1.2 -0.1
v 0.1 1.2 -0.1
v 0.2 1.2 -0.1
v -0.0999999 1.2 -0.2
v 0.1 1.2 -0.2
v -0.0999999 1.4 0.5
v 0.1 1.4 0.5
v -0.2 1.4 0.4
v -0.0999999 1.4 0.4
v 1.19209e-07 1.4 0.4
v 0.1 1.4 0.4
v 0.2 1.4 0.4
v -0.3 1.4 0.3
v -0.2 1.4 0.3
v -0.0999999 1.4 0.3
v 0.1 1.4 0.3
v 0.2 1.4 0.3
v 0.3 1.4 0.3
v -0.4 1.4 0.2
v -0.3 1.4 0.2
v -0.2 1.4 0.2
v 0.2 1.4 0.2
v 0.3 1.4 0.2
v 0.4 1.4 0.2
v -0.5 1.4 0.0999999
v -0.4 1.4 0.0999999
v -0.3 1.4 0.0999999
v 0.3 1.4 0.0999999
v 0.4 1.4 0.0999999
v 0.5 1.4 0.0999999
v -0.5 1.4 -1.19209e-07
v -0.4 1.4 -1.19209e-07
v -0.5 1.4 -0.1
v -0.4 1.4 -0.1
v -0.3 1.4 -0.1
v 0.3 1.4 -0.1
v 0.4 1.4 -0.1
v 0.5 1.4 -0.1
v -0.4 1.4 -0.2
v -0.3 1.4 -0.2
v -0.2 1.4 -0.2
v 0.2 1.4 -0.2
v 0.3 1.4 -0.2
v 0.4 1.4 -0.2
v -0.3 1.4 -0.3
v -0.2 1.4 -0.3
v -0.0999999 1.4 -0.3
v 0.1 1.4 -0.3
v 0.2 1.4 -0.3
v 0.3 1.4 -0.3
v -0.2 1.4 -0.4
v -0.0999999 1.4 -0.4
v 1.19209e-07 1.4 -0.4
v 0.1 1.4 -0.4
v 0.2 1.4 -0.4
v -0.0999999 1.4 -0.5
v 1.19209e-07 1.4 -0.5
v 0.1 1.4 -0.5
v -0.0999999 1.5 0.4
v 1.19209e-07 1.5 0.4
v 0.1 1.5 0.4
v -0.2 1.5 0.3
v -0.0999999 1.5 0.3
v 1.19209e-07 1.5 0.3
v 0.1 1.5 0.3
v 0.2 1.5 0.3
v -0.3 1.5 0.2
v -0.2 1.5 0.2
v -0.0999999 1.5 0.2
v 0.1 1.5 0.2
v 0.2 1.5 0.2
v 0.3 1.5 0.2
v -0.4 1.5 0.0999999
v -0.3 1.5 0.0999999
v -0.2 1.5 0.0999999
v -0.0999999 1.5 0.0999999
v 0.1 1.5 0.0999999
v 0.2 1.5 0.0999999
v 0.3 1.5 0.0999999
v 0.4 1.5 0.0999999
v -0.4 1.5 -0.1
v -0.3 1.5 -0.1
v -0.2 1.5 -0.1
v -0.0999999 1.5 -0.1
v 0.1 1.5 -0.1
v 0.2 1.5 -0.1
v 0.3 1.5 -0.1
v 0.4 1.5 -0.1
v -0.3 1.5 -0.2
v -0.2 1.5 -0.2
v -0.0999999 1.5 -0.2
v 1.19209e-07 1.5 -0.2
v 0.1 1.5 -0.2
v 0.2 1.5 -0.2
v 0.3 1.5 -0.2
v -0.2 1.5 -0.3
v -0.0999999 1.5 -0.3
v 0.1 1.5 -0.3
v 0.2 1.5 -0.3
v -0.0999999 1.5 -0.4
v 0.1 1.5 -0.4
v -0.0999999 1.6 0.2
v 0.1 1.6 0.2
v -0.2 1.6 0.0999999
v -0.0999999 1.6 0.0999999
v 1.19209e-07 1.6 0.0999999
v 0.1 1.6 0.0999999
v 0.2 1.6 0.0999999
v -0.0999999 1.6 -1.19209e-07
v -0.2 1.6 -0.1
v -0.0999999 1.6 -0.1
v 1.19209e-07 1.6 -0.1
v 0.1 1.6 -0.1
v 0.2 1.6 -0.1
v -0.0999999 1.6 -0.2
v 1.19209e-07 1.6 -0.2
v 0.1 1.6 -0.2
v -0.0999999 1.7 0.0999999
v 1.19209e-07 1.7 0.0999999
v 0.1 1.7 0.0999999
v -0.0999999 1.7 -1.19209e-07
v 1.19209e-07 1.7 -1.19209e-07
v -0.0999999 1.7 -0.1
v 0.1 1.7 -0.1

# faces
f 4/1/1 2/1/1 1/1/1
f 5/2/1 3/2/1 2/2/1
f 5/1/1 2/1/1 4/1/1
f 6/2/1 3/2/1 5/2/1
f 9/3/1 8/3/1 7/3/1
f 10/3/1 8/3/1 9/3/1
f 15/2/1 12/2/1 11/2/1
f 16/2/1 12/2/1 15/2/1
f 18/2/1 14/2/1 13/2/1
f 19/2/1 14/2/1 18/2/1
f 20/2/1 17/2/1 16/2/1
f 20/2/1 18/2/1 17/2/1
f 21/2/1 18/2/1 20/2/1
f 26/2/1 23/2/1 22/2/1
f 27/2/1 23/2/1 26/2/1
f 30/2/1 25/2/1 24/2/1
f 31/2/1 25/2/1 30/2/1
f 32/2/1 28/2/1 27/2/1
f 33/2/1 28/2/1 32/2/1
f 34/2/1 30/2/1 29/2/1
f 35/2/1 30/2/1 34/2/1
f 40/3/1 37/3/1 36/3/1
f 41/3/1 37/3/1 40/3/1
f 42/3/1 39/3/1 38/3/1
f 43/3/1 39/3/1 42/3/1
f 44/3/1 42/3/1 41/3/1
f 45/3/1 42/3/1 44/3/1
f 50/2/1 47/2/1 46/2/1
f 51/2/1 47/2/1 50/2/1
f 54/2/1 49/2/1 48/2/1
f 55/2/1 49/2/1 54/2/1
f 56/2/1 52/2/1 51/2/1
f 57/2/1 52/2/1 56/2/1
f 60/2/1 54/2/1 53/2/1
f 61/2/1 54/2/1 60/2/1
f 62/2/1 59/2/1 58/2/1
f 63/2/1 59/2/1 62/2/1
f 68/3/1 65/3/1 64/3/1
f 69/3/1 65/3/1 68/3/1
f 72/3/1 67/3/1 66/3/1
f 73/3/1 67/3/1 72/3/1
f 74/3/1 70/3/1 69/3/1
f 75/3/1 70/3/1 74/3/1
f 76/3/1 72/3/1 71/3/1
f 77/3/1 72/3/1 76/3/1
f 80/3/1 76/3/1 75/3/1
f 81/3/1 76/3/1 80/3/1
f 84/2/1 79/2/1 78/2/1
f 85/2/1 79/2/1 84/2/1
f 88/1/1 83/1/1 82/1/1
f 89/1/1 83/1/1 88/1/1
f 90/1/1 86/1/1 85/1/1
f 91/1/1 86/1/1 90/1/1
f 96/2/1 88/2/1 87/2/1
f 97/2/1 88/2/1 96/2/1
f 98/2/1 93/2/1 92/2/1
f 99/2/1 93/2/1 98/2/1
f 101/1/1 95/1/1 94/1/1
f 102/1/1 95/1/1 101/1/1
f 103/1/1 100/1/1 99/1/1
f 104/2/1 101/2/1 100/2/1
f 104/1/1 100/1/1 103/1/1
f 105/2/1 101/2/1 104/2/1
f 106/3/2 107/3/2 110/3/2
f 110/3/2 107/3/2 111/3/2
f 108/3/2 109/3/2 114/3/2
f 114/3/2 109/3/2 115/3/2
f 111/3/2 112/3/2 116/3/2
f 116/3/2 112/3/2 117/3/2
f 113/3/2 114/3/2 118/3/2
f 118/3/2 114/3/2 119/3/2
f 117/3/2 118/3/2 122/3/2
f 122/3/2 118/3/2 123/3/2
f 120/2/2 121/2/2 126/2/2
f 126/2/2 121/2/2 127/2/2
f 124/2/2 125/2/2 130/2/2
f 130/2/2 125/2/2 131/2/2
f 127/2/2 128/2/2 132/2/2
f 132/2/2 128/2/2 133/2/2
f 129/2/2 130/2/2 138/2/2
f 138/2/2 130/2/2 139/2/2
f 134/2/2 135/2/2 140/2/2
f 140/2/2 135/2/2 141/2/2
f 136/2/2 137/2/2 142/2/2
f 142/2/2 137/2/2 143/2/2
f 141/2/2 142/2/2 144/2/2
f 144/2/2 142/2/2 145/2/2
f 146/3/2 147/3/2 150/3/2
f 150/3/2 147/3/2 151/3/2
f 148/3/2 149/3/2 152/3/2
f 152/3/2 149/3/2 153/3/2
f 151/3/2 152/3/2 154/3/2
f 154/3/2 152/3/2 155/3/2
f 156/2/2 157/2/2 160/2/2
f 160/2/2 157/2/2 161/2/2
f 158/2/2 159/2/2 164/2/2
f 164/2/2 159/2/2 165/2/2
f 161/2/2 162/2/2 166/2/2
f 166/2/2 162/2/2 167/2/2
f 163/2/2 164/2/2 170/2/2
f 170/2/2 164/2/2 171/2/2
f 168/2/2 169/2/2 172/2/2
f 172/2/2 169/2/2 173/2/2
f 174/2/2 175/2/2 178/2/2
f 178/2/2 175/2/2 179/2/2
f 176/2/2 177/2/2 182/2/2
f 182/2/2 177/2/2 183/2/2
f 179/2/2 180/2/2 184/2/2
f 184/2/2 180/2/2 185/2/2
f 181/2/2 182/2/2 186/2/2
f 186/2/2 182/2/2 187/2/2
f 188/3/2 189/3/2 190/3/2
f 190/3/2 189/3/2 191/3/2
f 192/2/2 193/2/2 196/2/2
f 196/2/2 193/2/2 197/2/2
f 194/1/2 195/1/2 198/1/2
f 198/1/2 195/1/2 199/1/2
f 197/2/2 198/2/2 200/2/2
f 200/2/2 198/2/2 201/2/2
f 202/2/2 203/2/2 204/2/2
f 204/2/2 203/2/2 205/2/2
f 208/2/3 207/2/3 206/2/3
f 209/2/3 207/2/3 208/2/3
f 214/2/3 211/2/3 210/2/3
f 215/2/3 211/2/3 214/2/3
f 217/1/3 216/1/3 215/1/3
f 218/1/3 216/1/3 217/1/3
f 219/3/3 213/3/3 212/3/3
f 220/3/3 213/3/3 219/3/3
f 222/2/3 218/2/3 217/2/3
f 223/2/3 218/2/3 222/2/3
f 224/2/3 222/2/3 221/2/3
f 225/2/3 222/2/3 224/2/3
f 228/2/3 227/2/3 226/2/3
f 229/2/3 227/2/3 228/2/3
f 231/2/3 230/2/3 229/2/3
f 232/2/3 230/2/3 231/2/3
f 236/2/3 234/2/3 233/2/3
f 237/2/3 234/2/3 236/2/3
f 238/2/3 236/2/3 235/2/3
f 239/2/3 236/2/3 238/2/3
f 242/2/3 241/2/3 240/2/3
f 243/2/3 241/2/3 242/2/3
f 247/2/3 244/2/3 243/2/3
f 248/2/3 244/2/3 247/2/3
f 249/3/3 246/3/3 245/3/3
f 250/3/3 246/3/3 249/3/3
f 255/3/3 251/3/3 250/3/3
f 256/3/3 251/3/3 255/3/3
f 257/2/3 253/2/3 252/2/3
f 258/2/3 253/2/3 257/2/3
f 259/3/3 255/3/3 254/3/3
f 260/3/3 255/3/3 259/3/3
f 264/2/3 262/2/3 261/2/3
f 265/2/3 262/2/3 264/2/3
f 266/2/3 264/2/3 263/2/3
f 267/2/3 264/2/3 266/2/3
f 272/1/3 269/1/3 268/1/3
f 273/1/3 269/1/3 272/1/3
f 275/2/3 274/2/3 273/2/3
f 276/2/3 274/2/3 275/2/3
f 277/3/3 271/3/3 270/3/3
f 278/3/3 271/3/3 277/3/3
f 282/3/3 279/3/3 278/3/3
f 283/3/3 279/3/3 282/3/3
f 285/2/3 281/2/3 280/2/3
f 286/2/3 281/2/3 285/2/3
f 288/1/3 287/1/3 286/1/3
f 289/1/3 287/1/3 288/1/3
f 291/3/3 284/3/3 283/3/3
f 292/3/3 284/3/3 291/3/3
f 294/2/3 289/2/3 288/2/3
f 295/2/3 289/2/3 294/2/3
f 297/3/3 291/3/3 290/3/3
f 298/3/3 291/3/3 297/3/3
f 299/2/3 294/2/3 293/2/3
f 300/2/3 294/2/3 299/2/3
f 303/3/3 297/3/3 296/3/3
f 304/3/3 297/3/3 303/3/3
f 306/2/3 302/2/3 301/2/3
f 307/2/3 302/2/3 306/2/3
f 308/2/3 306/2/3 305/2/3
f 309/2/3 306/2/3 308/2/3
f 310/2/4 311/2/4 314/2/4
f 314/2/4 311/2/4 315/2/4
f 315/2/4 316/2/4 317/2/4
f 317/2/4 316/2/4 318/2/4
f 312/3/4 313/3/4 319/3/4
f 319/3/4 313/3/4 320/3/4
f 320/3/4 321/3/4 324/3/4
f 324/3/4 321/3/4 325/3/4
f 322/2/4 323/2/4 327/2/4
f 327/2/4 323/2/4 328/2/4
f 328/2/4 329/2/4 330/2/4
f 325/3/4 326/3/4 332/3/4
f 332/3/4 326/3/4 333/3/4
f 330/2/4 329/2/4 335/2/4
f 335/2/4 329/2/4 336/2/4
f 331/3/4 332/3/4 338/3/4
f 338/3/4 332/3/4 339/3/4
f 334/2/4 335/2/4 340/2/4
f 340/2/4 335/2/4 341/2/4
f 337/3/4 338/3/4 344/3/4
f 344/3/4 338/3/4 345/3/4
f 342/2/4 343/2/4 347/2/4
f 347/2/4 343/2/4 348/2/4
f 346/2/4 347/2/4 349/2/4
f 349/2/4 347/2/4 350/2/4
f 351/2/4 352/2/4 353/2/4
f 353/2/4 352/2/4 354/2/4
f 354/2/4 355/2/4 358/2/4
f 358/2/4 355/2/4 359/2/4
f 356/3/4 357/3/4 360/3/4
f 360/3/4 357/3/4 361/3/4
f 363/1/4 364/1/4 365/1/4
f 365/1/4 364/1/4 366/1/4
f 361/3/4 362/3/4 368/3/4
f 368/3/4 362/3/4 369/3/4
f 365/2/4 366/2/4 370/2/4
f 370/2/4 366/2/4 371/2/4
f 367/3/4 368/3/4 372/3/4
f 372/3/4 368/3/4 373/3/4
f 374/2/4 375/2/4 377/2/4
f 377/2/4 375/2/4 378/2/4
f 376/1/4 377/1/4 379/1/4
f 379/1/4 377/1/4 380/1/4
f 381/2/4 382/2/4 383/2/4
f 383/2/4 382/2/4 384/2/4
f 384/2/4 385/2/4 386/2/4
f 386/2/4 385/2/4 387/2/4
f 388/2/4 389/2/4 391/2/4
f 391/2/4 389/2/4 392/2/4
f 390/2/4 391/2/4 393/2/4
f 393/2/4 391/2/4 394/2/4
f 395/2/4 396/2/4 399/2/4
f 399/2/4 396/2/4 400/2/4
f 400/2/4 401/2/4 402/2/4
f 397/3/4 398/3/4 403/3/4
f 403/3/4 398/3/4 404/3/4
f 402/2/4 401/2/4 406/2/4
f 406/2/4 401/2/4 407/2/4
f 405/2/4 406/2/4 408/2/4
f 408/2/4 406/2/4 409/2/4
f 410/1/4 411/1/4 412/1/4
f 412/1/4 411/1/4 413/1/4
f 412/2/4 413/2/4 414/2/4
f 414/2/4 413/2/4 415/2/4
f 419/3/5 417/3/5 416/3/5
f 420/3/5 417/3/5 419/3/5
f 423/3/5 419/3/5 418/3/5
f 423/3/5 421/3/5 420/3/5
f 423/3/5 420/3/5 419/3/5
f 424/3/5 421/3/5 423/3/5
f 426/3/5 423/3/5 422/3/5
f 426/3/5 425/3/5 424/3/5
f 426/3/5 424/3/5 423/3/5
f 427/3/5 425/3/5 426/3/5
f 428/3/5 425/3/5 427/3/5
f 429/3/5 425/3/5 428/3/5
f 430/3/5 428/3/5 427/3/5
f 431/3/5 428/3/5 430/3/5
f 432/3/5 428/3/5 431/3/5
f 433/3/5 428/3/5 432/3/5
f 434/3/5 432/3/5 431/3/5
f 435/3/5 432/3/5 434/3/5
f 439/2/5 437/2/5 436/2/5
f 440/2/5 437/2/5 439/2/5
f 443/2/5 439/2/5 438/2/5
f 443/2/5 441/2/5 440/2/5
f 443/2/5 440/2/5 439/2/5
f 444/2/5 441/2/5 443/2/5
f 447/2/5 443/2/5 442/2/5
f 447/2/5 445/2/5 444/2/5
f 447/2/5 444/2/5 443/2/5
f 448/2/5 445/2/5 447/2/5
f 451/2/5 447/2/5 446/2/5
f 451/2/5 449/2/5 448/2/5
f 451/2/5 448/2/5 447/2/5
f 452/2/5 449/2/5 451/2/5
f 453/2/5 449/2/5 452/2/5
f 454/2/5 449/2/5 453/2/5
f 456/1/5 451/1/5 450/1/5
f 457/2/5 452/2/5 451/2/5
f 457/1/5 451/1/5 456/1/5
f 458/2/5 457/2/5 456/2/5
f 459/2/5 452/2/5 457/2/5
f 459/2/5 457/2/5 458/2/5
f 460/2/5 452/2/5 459/2/5
f 461/2/5 455/2/5 454/2/5
f 461/2/5 454/2/5 453/2/5
f 462/2/5 455/2/5 461/2/5
f 463/2/5 455/2/5 462/2/5
f 464/2/5 455/2/5 463/2/5
f 465/2/5 460/2/5 459/2/5
f 465/2/5 461/2/5 460/2/5
f 465/2/5 462/2/5 461/2/5
f 466/2/5 462/2/5 465/2/5
f 467/1/5 463/1/5 462/1/5
f 467/2/5 462/2/5 466/2/5
f 468/1/5 463/1/5 467/1/5
f 469/2/5 467/2/5 466/2/5
f 470/2/5 467/2/5 469/2/5
f 471/2/5 467/2/5 470/2/5
f 472/2/5 467/2/5 471/2/5
f 473/2/5 471/2/5 470/2/5
f 474/2/5 471/2/5 473/2/5
f 475/2/5 471/2/5 474/2/5
f 476/2/5 471/2/5 475/2/5
f 477/2/5 471/2/5 476/2/5
f 478/1/5 475/1/5 474/1/5
f 479/2/5 476/2/5 475/2/5
f 479/1/5 475/1/5 478/1/5
f 480/2/5 476/2/5 479/2/5
f 481/3/6 482/3/6 484/3/6
f 484/3/6 482/3/6 485/3/6
f 483/3/6 484/3/6 488/3/6
f 488/3/6 484/3/6 489/3/6
f 485/3/6 486/3/6 490/3/6
f 490/3/6 486/3/6 491/3/6
f 487/3/6 488/3/6 493/3/6
f 493/3/6 488/3/6 494/3/6
f 491/3/6 492/3/6 497/3/6
f 497/3/6 492/3/6 498/3/6
f 494/3/6 495/3/6 499/3/6
f 499/3/6 495/3/6 500/3/6
f 496/3/6 497/3/6 501/3/6
f 501/3/6 497/3/6 502/3/6
f 500/3/6 501/3/6 503/3/6
f 503/3/6 501/3/6 504/3/6
f 505/3/6 506/3/6 508/3/6
f 508/3/6 506/3/6 509/3/6
f 507/3/6 508/3/6 511/3/6
f 511/3/6 508/3/6 512/3/6
f 509/3/6 510/3/6 513/3/6
f 513/3/6 510/3/6 514/3/6
f 512/3/6 513/3/6 515/3/6
f 515/3/6 513/3/6 516/3/6
f 517/2/6 518/2/6 520/2/6
f 520/2/6 518/2/6 521/2/6
f 521/2/6 518/2/6 522/2/6
f 519/2/6 520/2/6 525/2/6
f 525/2/6 520/2/6 526/2/6
f 522/2/6 523/2/6 527/2/6
f 527/2/6 523/2/6 528/2/6
f 524/2/6 525/2/6 531/2/6
f 531/2/6 525/2/6 532/2/6
f 528/2/6 529/2/6 533/2/6
f 533/2/6 529/2/6 534/2/6
f 530/2/6 531/2/6 537/2/6
f 537/2/6 531/2/6 538/2/6
f 534/2/6 535/2/6 539/2/6
f 539/2/6 535/2/6 540/2/6
f 536/1/6 537/1/6 542/1/6
f 542/1/6 537/1/6 543/1/6
f 542/2/6 543/2/6 544/2/6
f 544/2/6 543/2/6 545/2/6
f 540/2/6 541/2/6 548/2/6
f 548/2/6 541/2/6 549/2/6
f 545/2/6 546/2/6 550/2/6
f 550/2/6 546/2/6 551/2/6
f 547/1/6 548/1/6 554/1/6
f 554/1/6 548/1/6 555/1/6
f 551/2/6 552/2/6 556/2/6
f 556/2/6 552/2/6 557/2/6
f 553/2/6 554/2/6 560/2/6
f 560/2/6 554/2/6 561/2/6
f 557/2/6 558/2/6 562/2/6
f 562/2/6 558/2/6 563/2/6
f 559/2/6 560/2/6 565/2/6
f 565/2/6 560/2/6 566/2/6
f 563/1/6 564/1/6 567/1/6
f 564/2/6 565/2/6 568/2/6
f 567/1/6 564/1/6 568/1/6
f 568/2/6 565/2/6 569/2/6
f 570/1/6 571/1/6 574/1/6
f 571/2/6 572/2/6 575/2/6
f 574/1/6 571/1/6 575/1/6
f 575/2/6 572/2/6 576/2/6
f 573/2/6 574/2/6 579/2/6
f 576/2/6 577/2/6 579/2/6
f 575/2/6 576/2/6 579/2/6
f 574/2/6 575/2/6 579/2/6
f 579/2/6 577/2/6 580/2/6
f 580/2/6 577/2/6 581/2/6
f 581/2/6 577/2/6 582/2/6
f 578/2/6 579/2/6 585/2/6
f 579/2/6 580/2/6 585/2/6
f 585/2/6 580/2/6 586/2/6
f 586/2/6 580/2/6 587/2/6
f 581/1/6 582/1/6 588/1/6
f 582/2/6 583/2/6 589/2/6
f 588/1/6 582/1/6 589/1/6
f 589/2/6 583/2/6 590/2/6
f 584/2/6 585/2/6 592/2/6
f 585/2/6 586/2/6 592/2/6
f 592/2/6 586/2/6 593/2/6
f 593/2/6 586/2/6 594/2/6
f 590/2/6 591/2/6 597/2/6
f 589/2/6 590/2/6 597/2/6
f 597/2/6 591/2/6 598/2/6
f 598/2/6 591/2/6 599/2/6
f 594/2/6 595/2/6 600/2/6
f 593/2/6 594/2/6 600/2/6
f 600/2/6 595/2/6 601/2/6
f 601/2/6 595/2/6 602/2/6
f 597/2/6 598/2/6 604/2/6
f 596/2/6 597/2/6 604/2/6
f 604/2/6 598/2/6 605/2/6
f 605/2/6 598/2/6 606/2/6
f 602/2/6 603/2/6 607/2/6
f 601/2/6 602/2/6 607/2/6
f 604/2/6 605/2/6 607/2/6
f 603/2/6 604/2/6 607/2/6
f 607/2/6 605/2/6 608/2/6
f 608/2/6 605/2/6 609/2/6
f 609/2/6 605/2/6 610/2/6
f 608/2/6 609/2/6 611/2/6
f 611/2/6 609/2/6 612/2/6
f 613/2/6 614/2/6 616/2/6
f 616/2/6 614/2/6 617/2/6
f 617/2/6 614/2/6 618/2/6
f 615/2/6 616/2/6 620/2/6
f 615/2/6 620/2/6 621/2/6
f 621/2/6 620/2/6 622/2/6
f 618/2/6 619/2/6 624/2/6
f 624/2/6 619/2/6 625/2/6
f 622/1/6 623/1/6 626/1/6
f 623/2/6 624/2/6 627/2/6
f 626/1/6 623/1/6 627/1/6
f 627/2/6 624/2/6 628/2/6
f 629/1/6 630/1/6 632/1/6
f 630/2/6 631/2/6 633/2/6
f 632/1/6 630/1/6 633/1/6
f 632/2/6 633/2/6 634/2/6
f 633/2/6 631/2/6 635/2/6
f 634/2/6 633/2/6 635/2/6
